<?xml version="1.0" encoding="UTF-8" standalone="no"?>
<!-- Created with Inkscape (http://www.inkscape.org/) -->

<svg
   version="1.1"
   id="svg14"
   width="20"
   height="12"
   viewBox="0 0 20 12"
   sodipodi:docname="04.svg"
   inkscape:version="1.1 (c68e22c387, 2021-05-23)"
   xmlns:inkscape="http://www.inkscape.org/namespaces/inkscape"
   xmlns:sodipodi="http://sodipodi.sourceforge.net/DTD/sodipodi-0.dtd"
   xmlns="http://www.w3.org/2000/svg"
   xmlns:svg="http://www.w3.org/2000/svg">
  <defs
     id="defs18" />
  <sodipodi:namedview
     id="namedview16"
     pagecolor="#ffffff"
     bordercolor="#666666"
     borderopacity="1.0"
     inkscape:pageshadow="2"
     inkscape:pageopacity="0.0"
     inkscape:pagecheckerboard="0"
     showgrid="false"
     inkscape:zoom="16"
     inkscape:cx="5.25"
     inkscape:cy="2.28125"
     inkscape:window-width="1680"
     inkscape:window-height="987"
     inkscape:window-x="-8"
     inkscape:window-y="-8"
     inkscape:window-maximized="1"
     inkscape:current-layer="g20" />
  <g
     inkscape:groupmode="layer"
     inkscape:label="Image"
     id="g20">
    <path
       style="fill:#000000"
       d="m 0.26376351,10.59855 c 0,-0.822981 0.75930839,-1.844248 1.34245989,-2.446017 0.9101269,-0.939184 2.8131098,-1.319111 4.5898638,-1.319111 2.9072,0 5.1132868,0.371863 5.9534448,1.612663 0.303964,0.448915 0.646626,1.01446 0.659296,1.676921 l 0.01839,0.96151 -0.03292,1.058267 -6.1675766,0.01628 c -2.3844923,0.0063 -4.2254838,0.05898 -5.4190916,-0.23398 C 0.52077229,11.756499 0.26376351,10.944032 0.26376351,10.59855 Z M 13.140508,10.138163 c -0.08647,-0.839698 0.642716,-3.218697 1.680892,-3.461018 1.047432,-0.244478 2.448428,0.376667 3.557947,1.278666 0.30442,0.247483 0.736133,0.65607 0.915865,1.101019 0.300191,0.743163 0.566024,1.618599 0.566024,2.090702 0,1.433467 -1.682802,0.900239 -4.112759,0.995974 -0.204014,0.008 -0.472236,0.03472 -0.756164,0.02043 -0.08431,-0.0042 -0.295052,0.0079 -0.483885,3.45e-4 -0.06454,-0.0026 -1.213763,0.0182 -1.213763,0.0182 -0.0017,-0.211861 -0.01394,-0.611896 -0.01394,-0.611896 -0.06932,-0.420762 -0.133675,-1.115576 -0.12989,-1.337355 7.37e-4,-0.04321 -0.01033,-0.09507 -0.01033,-0.09507 z M 4.2795822,4.2358038 C 3.741243,3.3647525 3.8759812,1.6627318 4.8547349,0.86291441 5.7973004,0.09266931 7.7691361,0.09062241 8.4596001,0.78108631 9.0865591,1.4080453 9.6282417,2.9371179 9.2974729,3.7990875 9.1156658,4.2728688 8.7091358,4.9060623 8.1357714,5.2486788 7.6339,5.5485744 6.9772837,5.5854567 6.5894335,5.6345817 5.7336303,5.7429776 4.7859839,5.0551789 4.2795822,4.2358038 Z M 10.92143,3.8566539 C 10.781394,3.4917247 10.611743,2.951928 10.660684,2.3757154 10.71994,1.678071 11.23659,0.87780651 11.598116,0.51628101 c 0.745368,-0.745368 3.019183,-0.5314521 4.013297,0.413674 C 16.494429,1.769458 16.332815,3.2932963 15.835701,4.0976445 15.692749,4.3289457 15.438125,4.6649118 15.223088,4.8287752 14.747393,5.1912669 13.9777,5.4337042 13.355162,5.4591188 12.294253,5.5024295 11.295114,4.8304614 10.92143,3.8566539 Z"
       id="path162"
       sodipodi:nodetypes="sssssccssscssssssssssccsssssssssssssss" />
  </g>
</svg>
