<?xml version="1.0" encoding="UTF-8" standalone="no"?>
<!-- Created with Inkscape (http://www.inkscape.org/) -->

<svg
   version="1.1"
   id="svg11684"
   width="14"
   height="14"
   viewBox="0 0 14 14"
   sodipodi:docname="06.svg"
   inkscape:version="1.1 (c68e22c387, 2021-05-23)"
   xmlns:inkscape="http://www.inkscape.org/namespaces/inkscape"
   xmlns:sodipodi="http://sodipodi.sourceforge.net/DTD/sodipodi-0.dtd"
   xmlns="http://www.w3.org/2000/svg"
   xmlns:svg="http://www.w3.org/2000/svg">
  <defs
     id="defs11688" />
  <sodipodi:namedview
     id="namedview11686"
     pagecolor="#ffffff"
     bordercolor="#666666"
     borderopacity="1.0"
     inkscape:pageshadow="2"
     inkscape:pageopacity="0.0"
     inkscape:pagecheckerboard="0"
     showgrid="false"
     inkscape:zoom="19.016122"
     inkscape:cx="-0.94656525"
     inkscape:cy="2.6556414"
     inkscape:window-width="1680"
     inkscape:window-height="987"
     inkscape:window-x="-8"
     inkscape:window-y="-8"
     inkscape:window-maximized="1"
     inkscape:current-layer="g11690" />
  <g
     inkscape:groupmode="layer"
     inkscape:label="Image"
     id="g11690">
    <path
       style="fill:#000000"
       d="M 1.3452101,12.565087 C 0.45368707,11.490868 0.09348417,10.613109 0.93290877,10.094316 1.7127311,9.6123593 3.2658975,9.8464449 3.8151065,10.395415 c 0.5994076,0.599147 0.8435487,2.225682 0.1467706,2.92246 -0.723175,0.723176 -1.7798551,0.255509 -2.616667,-0.752788 z M 6.1633187,11.673176 C 5.5320769,10.287751 3.8277287,8.5781666 2.3758782,7.8740997 0.28952277,6.862333 0.01314007,5.775295 1.3548621,5.4643791 c 1.65624,-0.383799 4.0046787,0.9430986 5.3242218,2.2506451 0.7405605,0.7338278 1.516466,1.8098016 1.770105,2.8203818 0.867516,3.45646 -0.8806457,4.221902 -2.2858702,1.13777 z m 5.0728313,0.160502 c 0,-1.155 -1.5300001,-3.6300002 -3.4000001,-5.5000002 -1.8699999,-1.87 -4.3449999,-3.4 -5.4999999,-3.4 -1.155,0 -2.10000003,-0.45 -2.10000003,-1 0,-2.52275142 6.19122913,-1.38503247 9.88015803,2.3038964 3.688929,3.6889289 4.642593,9.6961038 2.119842,9.6961038 -0.55,0 -1,-0.945 -1,-2.1 z"
       id="path11939"
       sodipodi:nodetypes="ssssssssssssssssss" />
  </g>
</svg>
