<?xml version="1.0" encoding="UTF-8" standalone="no"?>
<!-- Created with Inkscape (http://www.inkscape.org/) -->

<svg
   version="1.1"
   id="svg3103"
   width="18"
   height="16"
   viewBox="0 0 18 16"
   sodipodi:docname="02.svg"
   inkscape:version="1.1 (c68e22c387, 2021-05-23)"
   xmlns:inkscape="http://www.inkscape.org/namespaces/inkscape"
   xmlns:sodipodi="http://sodipodi.sourceforge.net/DTD/sodipodi-0.dtd"
   xmlns="http://www.w3.org/2000/svg"
   xmlns:svg="http://www.w3.org/2000/svg">
  <defs
     id="defs3107" />
  <sodipodi:namedview
     id="namedview3105"
     pagecolor="#ffffff"
     bordercolor="#666666"
     borderopacity="1.0"
     inkscape:pageshadow="2"
     inkscape:pageopacity="0.0"
     inkscape:pagecheckerboard="0"
     showgrid="false"
     inkscape:zoom="22.627417"
     inkscape:cx="4.9939416"
     inkscape:cy="5.6347572"
     inkscape:window-width="1680"
     inkscape:window-height="987"
     inkscape:window-x="-8"
     inkscape:window-y="-8"
     inkscape:window-maximized="1"
     inkscape:current-layer="g3109" />
  <g
     inkscape:groupmode="layer"
     inkscape:label="Image"
     id="g3109">
    <path
       style="fill:#90a4ae;fill-opacity:1;stroke:#90a4ae;stroke-width:0.0300497;stroke-opacity:1"
       d="M 3.5500514,14.777817 C 2.7121581,14.669706 0.29159252,13.690429 0.11404732,13.387471 -0.10715079,13.010025 1.8102845,12.858184 2.4243972,12.957437 c 0,0 0.6706039,-0.05825 1.6890857,-0.05881 0.516479,-3.01e-4 0.939053,-0.0081 0.939053,-0.01735 0,-0.0093 -0.595779,-0.717272 -1.2790262,-1.324851 C 3.0445472,10.908193 2.5082482,10.101071 2.3952212,9.921002 1.8482112,9.0495306 0.92692792,7.3805188 0.57509862,6.2636511 0.50982472,6.0564419 0.87588182,5.8091887 0.87588182,5.8091887 1.0724181,5.5714542 1.2129732,5.3404341 1.1631559,5.0250839 1.1398772,4.8777266 0.78254392,4.1626732 0.73215102,3.4330204 0.67906842,2.6644238 0.85550732,1.8812743 0.86347762,1.7952137 l 0.043001,-0.1630584 0.064149,-0.075432 1.67793218,0.5729008 c 1.3893468,1.4884786 1.7514438,1.4868874 2.2988018,1.7713849 0.987053,0.5130351 1.472762,0.6924336 2.178603,0.6921394 0.595318,-2.404e-4 0.983491,0.041146 1.35454,-0.3275341 C 8.8025516,3.9456226 8.7607826,3.5528 8.9832989,2.8186961 9.3556659,1.5902236 10.314289,0.68025603 11.545847,0.62855543 c 0.882787,-0.037059 2.163108,0.3308131 3.330604,0.91365507 0.120666,0.060239 1.69375,-0.89956097 1.627808,-0.4403237 -0.09726,0.6773128 0.559872,-0.4082172 0.304839,0.7734482 -0.0037,0.017065 -0.379394,3.8148903 -0.643232,4.575045 -1.495017,4.307365 -2.862986,5.983895 -5.103392,7.178064 -1.2297501,0.655474 -3.1640344,0.887562 -4.9801464,1.104757 -0.685172,0.08194 -2.055822,0.106092 -2.5322765,0.04462 z"
       id="path9484"
       sodipodi:nodetypes="csscsssssssccccscssssssssscc" />
  </g>
</svg>
