<?xml version="1.0" encoding="UTF-8" standalone="no"?>
<!-- Created with Inkscape (http://www.inkscape.org/) -->

<svg
   version="1.1"
   id="svg27195"
   width="18"
   height="18"
   viewBox="0 0 18 18"
   sodipodi:docname="05.svg"
   inkscape:version="1.1 (c68e22c387, 2021-05-23)"
   xmlns:inkscape="http://www.inkscape.org/namespaces/inkscape"
   xmlns:sodipodi="http://sodipodi.sourceforge.net/DTD/sodipodi-0.dtd"
   xmlns="http://www.w3.org/2000/svg"
   xmlns:svg="http://www.w3.org/2000/svg">
  <defs
     id="defs27199" />
  <sodipodi:namedview
     id="namedview27197"
     pagecolor="#ffffff"
     bordercolor="#666666"
     borderopacity="1.0"
     inkscape:pageshadow="2"
     inkscape:pageopacity="0.0"
     inkscape:pagecheckerboard="0"
     showgrid="false"
     inkscape:lockguides="true"
     inkscape:zoom="29.580634"
     inkscape:cx="6.1188682"
     inkscape:cy="10.260091"
     inkscape:window-width="1680"
     inkscape:window-height="987"
     inkscape:window-x="-8"
     inkscape:window-y="-8"
     inkscape:window-maximized="1"
     inkscape:current-layer="g27201" />
  <g
     inkscape:groupmode="layer"
     inkscape:label="Image"
     id="g27201">
    <path
       style="fill:#000000"
       id="path27243"
       d="" />
    <path
       style="fill:#90a4ae;stroke:#90a4ae;stroke-width:0.0338059"
       d="M 7.7576962,17.629125 C 6.83853,17.51257 6.0109142,17.275047 5.2810698,16.918343 2.7120151,15.662742 0.940763,13.048455 0.58217638,9.9829911 0.51728506,9.4282521 0.51681418,8.3871382 0.58120564,7.8366723 0.7375939,6.4997499 1.204339,5.1799614 1.9008306,4.1052444 2.5392337,3.1201606 3.4081355,2.2754051 4.3260389,1.7474313 5.9158138,0.83300009 8.3228099,0.44896659 10.504082,0.76173159 c 2.146321,0.30775361 3.942073,1.15782231 5.027791,2.38004461 0.855144,0.9626589 1.47571,2.2576183 1.81444,3.786261 0.301177,1.3591717 0.320944,3.0708974 0.05075,4.3947668 -0.347371,1.702016 -0.986772,2.951441 -1.99774,3.903693 -1.292384,1.217322 -3.074716,2.038276 -5.114981,2.355994 -0.5736889,0.08934 -1.9845377,0.115377 -2.5266468,0.04663 z m 1.7998202,-1.555177 c 0.8950436,-0.13627 1.2852536,-0.476529 1.4748326,-1.286039 0.0894,-0.381725 0.09064,-1.971005 0.0019,-2.442033 -0.163464,-0.867768 -0.467252,-1.401577 -0.912124,-1.602761 -0.2637197,-0.119262 -0.7492316,-0.112748 -1.1248801,0.01509 -0.7156497,0.24355 -1.6754418,0.882979 -2.4436268,1.627982 -0.7497622,0.727136 -1.0852374,1.341256 -1.0862253,1.988441 -0.00138,0.903684 0.7792961,1.497716 2.2307883,1.697451 0.4464137,0.06143 1.4614109,0.06245 1.8593246,0.0019 z M 13.69325,14.592256 c 0.671811,-0.449535 1.647307,-1.685104 2.13833,-2.708422 0.20097,-0.41883 0.284282,-0.696129 0.284282,-0.946212 0,-0.156905 -0.011,-0.178743 -0.164594,-0.326788 -0.193602,-0.186608 -0.534053,-0.331352 -1.002542,-0.426234 -0.426695,-0.08642 -1.557408,-0.08732 -1.87184,-0.0015 -0.303027,0.08272 -0.525658,0.21307 -0.636012,0.372395 -0.08787,0.126865 -0.09419,0.158555 -0.09175,0.460222 0.0024,0.292844 0.01652,0.362549 0.147225,0.725392 0.31365,0.870678 0.544206,1.819457 0.609442,2.507962 0.04122,0.434989 0.08231,0.504296 0.28302,0.477374 0.07146,-0.0096 0.208455,-0.06998 0.30444,-0.134204 z M 3.582596,12.842217 c 0.1752504,-0.04867 0.6430833,-0.370915 1.1068705,-0.76242 1.3107998,-1.106508 2.5575777,-2.008854 4.171915,-3.019391 0.558102,-0.3493586 0.7637467,-0.5189889 0.7637467,-0.6299922 0,-0.1144817 -0.092506,-0.1294695 -0.6552727,-0.1061685 C 8.3993005,8.3478689 7.1369786,8.5301094 5.1458462,8.876315 3.1246444,9.2277489 2.4134146,9.4876693 2.185675,9.9581163 2.120771,10.092189 2.113377,10.151111 2.127528,10.421462 c 0.013212,0.252406 0.045246,0.395319 0.1730638,0.772083 0.2079552,0.61298 0.4401167,1.152321 0.5924253,1.376282 0.1901107,0.279546 0.3856633,0.356791 0.6895789,0.27239 z M 14.431969,8.0581604 c 0.601883,-0.083948 1.174021,-0.273106 1.440252,-0.4761696 0.179172,-0.1366617 0.243369,-0.2693131 0.243514,-0.5031759 4.53e-4,-0.7301057 -0.467304,-1.3364632 -1.172712,-1.5201983 -0.279617,-0.072831 -0.78762,-0.064898 -1.112104,0.017366 -0.361324,0.091604 -0.817827,0.3173985 -1.152349,0.5699702 -0.324858,0.245276 -1.039187,0.9807734 -1.229854,1.2663001 -0.238766,0.3575552 -0.168604,0.5493071 0.232175,0.63453 0.479311,0.1019221 2.055174,0.1084392 2.751078,0.011378 z M 6.880378,7.047508 C 7.6165049,6.9659056 8.0734701,6.8531646 8.1158617,6.742694 8.1895369,6.5506988 7.5717236,4.6851313 7.2664093,4.1776621 6.9720613,3.6884206 6.5715553,3.362767 6.095007,3.2251886 5.7814735,3.1346726 5.2577708,3.1683096 4.9213463,3.3005736 4.1494091,3.6040567 3.5097603,4.280831 2.9489128,5.3874889 2.6671958,5.9433694 2.5800843,6.1960929 2.5787171,6.4614817 c -0.00207,0.4026824 0.2814414,0.5570202 1.1687304,0.6362231 0.502186,0.044827 2.5753829,0.01161 3.1329305,-0.050197 z M 11.954807,5.4222791 C 12.691713,5.2485796 13.060568,4.6661597 12.891056,3.9439456 12.814996,3.6198756 12.737288,3.4872914 12.485229,3.2515024 11.846508,2.6540103 10.735195,2.267776 9.3877212,2.1749703 8.5769546,2.1191293 8.3469957,2.2872688 8.4935672,2.8287482 c 0.08812,0.3255403 0.5838202,1.3022296 0.802447,1.5810786 0.3950997,0.5039321 0.9922818,0.8761743 1.6272508,1.0143157 0.280457,0.061015 0.768524,0.060134 1.031542,-0.00186 z"
       id="path27360" />
  </g>
</svg>
