<?xml version="1.0" encoding="UTF-8" standalone="no"?>
<!-- Created with Inkscape (http://www.inkscape.org/) -->

<svg
   version="1.1"
   id="svg27747"
   width="18"
   height="12"
   viewBox="0 0 18 12"
   sodipodi:docname="06.svg"
   inkscape:version="1.1 (c68e22c387, 2021-05-23)"
   xmlns:inkscape="http://www.inkscape.org/namespaces/inkscape"
   xmlns:sodipodi="http://sodipodi.sourceforge.net/DTD/sodipodi-0.dtd"
   xmlns="http://www.w3.org/2000/svg"
   xmlns:svg="http://www.w3.org/2000/svg">
  <defs
     id="defs27751" />
  <sodipodi:namedview
     id="namedview27749"
     pagecolor="#ffffff"
     bordercolor="#666666"
     borderopacity="1.0"
     inkscape:pageshadow="2"
     inkscape:pageopacity="0.0"
     inkscape:pagecheckerboard="0"
     showgrid="false"
     inkscape:zoom="32"
     inkscape:cx="7.5625"
     inkscape:cy="7.359375"
     inkscape:window-width="1680"
     inkscape:window-height="987"
     inkscape:window-x="-8"
     inkscape:window-y="-8"
     inkscape:window-maximized="1"
     inkscape:current-layer="g27753" />
  <g
     inkscape:groupmode="layer"
     inkscape:label="Image"
     id="g27753">
    <path
       style="fill:#90a4ae;fill-opacity:1;stroke:#90a4ae;stroke-width:0.03125"
       d="m 2.9951244,11.989237 -3.00781249,-0.0095 0.00186,-0.210781 c 0.00103,-0.115974 0.026289,-1.546764 0.05614,-3.1795757 0.051524,-2.8182722 0.051526,-3.1010122 4.54e-5,-5.578125 -0.029826,-1.4351563 -0.055089,-2.6981821 -0.05614,-2.8067242 l -0.00191,-0.1973492 2.88281249,0.012532 c 3.0824466,0.013399 3.1031126,0.014371 3.7940496,0.1784684 0.529533,0.1257639 1.084523,0.4091297 1.572062,0.8026604 0.628297,0.5071481 0.936349,1.0780552 1.033745,1.9158202 0.05465,0.4700901 0.0026,0.648061 -0.452121,1.5446479 -0.30224,0.5959906 -0.405016,0.8925856 -0.407143,1.174945 -0.0023,0.2994156 0.01936,0.3438634 0.24928,0.512685 0.701934,0.5153962 0.827315,0.8937119 0.827315,2.4962809 0,1.0619328 -0.08926,1.7820743 -0.299093,2.4131253 -0.197332,0.593448 -0.353704,0.824277 -0.600766,0.886822 -0.15999,0.0405 -2.04209,0.05533 -5.5923286,0.04407 z M 4.7373119,9.5724856 C 5.3222079,9.4802045 6.2609718,9.414889 6.6867749,9.0247459 7.0367367,8.7040926 6.9598971,7.9266435 6.981696,7.5871803 7.0175673,7.0285765 6.451022,6.6740247 5.532409,6.5706581 4.8142203,6.489844 4.0709497,6.6616312 3.6439066,7.007135 3.2170363,7.352499 3.0630125,7.6905362 3.0883247,8.2264759 3.1064013,8.6092153 3.187186,8.8263728 3.3968225,9.0557487 3.6931016,9.379925 4.1902941,9.6587905 4.7373119,9.5724856 Z M 5.780219,4.5266984 C 6.322729,4.4320924 6.729476,4.1818931 6.848829,3.8693709 6.975772,3.5369753 7.1900933,2.8309769 7.022485,2.3493311 6.9150126,2.0404942 6.5954132,1.845523 6.3301131,1.6543518 6.2442713,1.5924955 6.1511001,1.5243616 6.0459057,1.5129966 5.4482217,1.4484241 4.6556486,1.5063936 4.0564599,1.7083827 3.7103503,1.8250578 3.4287647,1.989786 3.2865353,2.2067067 3.1250889,2.4529361 3.0719785,2.6777709 3.0863006,3.0543666 3.0967046,3.3279381 3.1112836,3.39805 3.194301,3.5737553 c 0.3013815,0.6378722 0.9952281,0.98934 1.968605,0.9971956 0.191108,0.00154 0.468899,-0.018371 0.617313,-0.044252 z"
       id="path45175"
       sodipodi:nodetypes="cccsscccssscccsssccssssssssssaassssscs" />
    <path
       style="fill:#90a4ae;fill-opacity:1;stroke:#90a4ae;stroke-width:0.03125"
       d="m 13.486091,11.920611 c -0.975864,-0.170516 -2.014628,-0.537853 -2.549722,-0.901653 -0.477079,-0.324359 -0.713516,-0.762153 -0.822693,-1.5233277 -0.05048,-0.351946 -0.04033,-1.707335 0.01585,-2.1161131 0.170267,-1.2389461 0.567509,-2.2197657 1.100958,-2.7183432 0.568093,-0.530957 1.591474,-0.8660282 2.678704,-0.8770497 0.502756,-0.0051 0.836067,0.053869 1.470072,0.2600678 0.908566,0.2954952 1.567547,0.7315249 1.923115,1.2724728 0.515103,0.783658 0.787126,2.5001051 0.499328,3.150722 -0.05235,0.1183515 -0.08888,0.1522878 -0.236801,0.2200084 -0.288992,0.1323047 -0.671085,0.1550922 -1.724621,0.1028531 -1.908559,-0.094635 -2.614952,-0.029652 -3.106502,0.2857744 -0.51485,0.3303787 -0.237133,0.9664152 0.477924,1.0945542 0.137525,0.02464 0.366798,0.03089 0.671875,0.0183 0.500608,-0.02066 0.798944,-0.07679 1.598361,-0.3007439 1.054783,-0.2954919 2.012082,-0.2941834 2.20353,0.00301 0.07867,0.1221269 0.178748,0.4590679 0.198191,0.6672749 l 0.01835,0.196485 -0.143065,0.152948 c -0.179326,0.191714 -0.563505,0.397356 -1.068507,0.571947 -1.219459,0.421595 -2.391548,0.582837 -3.204346,0.440813 z M 14.958842,7.658519 C 15.58036,7.4954722 15.980223,7.2015647 16.062263,6.847482 16.121623,6.5912886 15.892816,6.256962 15.526319,6.0643732 14.458275,5.503132 12.605974,5.709015 12.142059,6.4405333 c -0.104184,0.1642805 -0.123265,0.3741604 -0.04985,0.5482882 0.05575,0.1322388 0.316032,0.3721485 0.510838,0.4708644 0.437636,0.2217669 0.871711,0.3030891 1.540514,0.2886078 0.426065,-0.00923 0.567673,-0.024818 0.81528,-0.089775 z"
       id="path45214" />
    <path
       style="fill:#90a4ae;fill-opacity:1;stroke:#90a4ae;stroke-width:0.03125"
       d="m 13.381489,2.2879331 c -0.692973,-0.061079 -1.198635,-0.2156994 -1.34356,-0.4108306 -0.09094,-0.1224386 -0.08645,-0.3080535 0.0099,-0.4106411 0.20709,-0.2204375 0.791827,-0.3118446 2.001955,-0.312949 1.117537,-0.00102 1.759818,0.076798 2.003574,0.2427497 0.309671,0.2108276 0.299953,0.5197908 -0.02197,0.6984568 -0.344859,0.1913965 -1.617656,0.2841998 -2.64993,0.1932142 z"
       id="path45292" />
  </g>
</svg>
